<?xml version="1.0" encoding="UTF-8"?><svg xmlns="http://www.w3.org/2000/svg" xmlns:xlink="http://www.w3.org/1999/xlink" fill-opacity="1" color-rendering="auto" color-interpolation="auto" text-rendering="auto" stroke="black" stroke-linecap="square" width="475" stroke-miterlimit="10" shape-rendering="auto" stroke-opacity="1" fill="black" stroke-dasharray="none" font-weight="normal" stroke-width="1" height="865" font-family="'Dialog'" font-style="normal" stroke-linejoin="miter" font-size="12px" stroke-dashoffset="0" image-rendering="auto">
  <!--Generated by ySVG 2.5-->
  <defs id="genericDefs"/>
  <g>
    <defs id="defs1">
      <clipPath clipPathUnits="userSpaceOnUse" id="clipPath1">
        <path d="M0 0 L475 0 L475 865 L0 865 L0 0 Z"/>
      </clipPath>
      <clipPath clipPathUnits="userSpaceOnUse" id="clipPath2">
        <path d="M-78 68 L397 68 L397 933 L-78 933 L-78 68 Z"/>
      </clipPath>
    </defs>
    <g fill="white" text-rendering="geometricPrecision" shape-rendering="geometricPrecision" transform="translate(78,-68)" stroke="white">
      <rect x="-78" width="475" height="865" y="68" clip-path="url(#clipPath2)" stroke="none"/>
    </g>
    <g fill="rgb(255,204,0)" text-rendering="geometricPrecision" shape-rendering="geometricPrecision" transform="matrix(1,0,0,1,78,-68)" stroke="rgb(255,204,0)">
      <rect x="225" width="157" height="79" y="209" clip-path="url(#clipPath2)" stroke="none"/>
    </g>
    <g text-rendering="geometricPrecision" stroke-miterlimit="1.45" shape-rendering="geometricPrecision" transform="matrix(1,0,0,1,78,-68)" stroke-linecap="butt">
      <rect fill="none" x="225" width="157" height="79" y="209" clip-path="url(#clipPath2)"/>
      <text x="263.1553" xml:space="preserve" y="245.8633" clip-path="url(#clipPath2)" font-family="sans-serif" stroke="none">ASP.NET Core</text>
      <text x="255.1367" xml:space="preserve" y="260.5645" clip-path="url(#clipPath2)" font-family="sans-serif" stroke="none">Request Pipelines</text>
    </g>
    <g fill="rgb(255,204,0)" text-rendering="geometricPrecision" shape-rendering="geometricPrecision" transform="matrix(1,0,0,1,78,-68)" stroke="rgb(255,204,0)">
      <rect x="225" width="157" height="79" y="83" clip-path="url(#clipPath2)" stroke="none"/>
    </g>
    <g text-rendering="geometricPrecision" stroke-miterlimit="1.45" shape-rendering="geometricPrecision" transform="matrix(1,0,0,1,78,-68)" stroke-linecap="butt">
      <rect fill="none" x="225" width="157" height="79" y="83" clip-path="url(#clipPath2)"/>
      <text x="263.8203" xml:space="preserve" y="127.2139" clip-path="url(#clipPath2)" font-family="sans-serif" stroke="none">HTTP Request</text>
    </g>
    <g fill="rgb(255,204,0)" text-rendering="geometricPrecision" shape-rendering="geometricPrecision" transform="matrix(1,0,0,1,78,-68)" stroke="rgb(255,204,0)">
      <rect x="225" width="157" height="79" y="335" clip-path="url(#clipPath2)" stroke="none"/>
    </g>
    <g text-rendering="geometricPrecision" stroke-miterlimit="1.45" shape-rendering="geometricPrecision" transform="matrix(1,0,0,1,78,-68)" stroke-linecap="butt">
      <rect fill="none" x="225" width="157" height="79" y="335" clip-path="url(#clipPath2)"/>
      <text x="247.8096" xml:space="preserve" y="371.8633" clip-path="url(#clipPath2)" font-family="sans-serif" stroke="none">Identity Server Client</text>
      <text x="236.4629" xml:space="preserve" y="386.5645" clip-path="url(#clipPath2)" font-family="sans-serif" stroke="none">Credentials Authorization</text>
    </g>
    <g fill="rgb(255,204,0)" text-rendering="geometricPrecision" shape-rendering="geometricPrecision" transform="matrix(1,0,0,1,78,-68)" stroke="rgb(255,204,0)">
      <rect x="225" width="157" height="79" y="461" clip-path="url(#clipPath2)" stroke="none"/>
    </g>
    <g text-rendering="geometricPrecision" stroke-miterlimit="1.45" shape-rendering="geometricPrecision" transform="matrix(1,0,0,1,78,-68)" stroke-linecap="butt">
      <rect fill="none" x="225" width="157" height="79" y="461" clip-path="url(#clipPath2)"/>
      <text x="253.6514" xml:space="preserve" y="497.8633" clip-path="url(#clipPath2)" font-family="sans-serif" stroke="none">Controller Class -&gt;</text>
      <text x="263.4775" xml:space="preserve" y="512.5645" clip-path="url(#clipPath2)" font-family="sans-serif" stroke="none"> Action Method</text>
    </g>
    <g fill="rgb(255,204,0)" text-rendering="geometricPrecision" shape-rendering="geometricPrecision" transform="matrix(1,0,0,1,78,-68)" stroke="rgb(255,204,0)">
      <rect x="225" width="157" height="79" y="587" clip-path="url(#clipPath2)" stroke="none"/>
    </g>
    <g text-rendering="geometricPrecision" stroke-miterlimit="1.45" shape-rendering="geometricPrecision" transform="matrix(1,0,0,1,78,-68)" stroke-linecap="butt">
      <rect fill="none" x="225" width="157" height="79" y="587" clip-path="url(#clipPath2)"/>
      <text x="228.1338" xml:space="preserve" y="631.2139" clip-path="url(#clipPath2)" font-family="sans-serif" stroke="none">Mediator Command Handler</text>
    </g>
    <g fill="rgb(255,204,0)" text-rendering="geometricPrecision" shape-rendering="geometricPrecision" transform="matrix(1,0,0,1,78,-68)" stroke="rgb(255,204,0)">
      <rect x="225" width="157" height="79" y="713" clip-path="url(#clipPath2)" stroke="none"/>
    </g>
    <g text-rendering="geometricPrecision" stroke-miterlimit="1.45" shape-rendering="geometricPrecision" transform="matrix(1,0,0,1,78,-68)" stroke-linecap="butt">
      <rect fill="none" x="225" width="157" height="79" y="713" clip-path="url(#clipPath2)"/>
      <text x="258.1455" xml:space="preserve" y="757.2139" clip-path="url(#clipPath2)" font-family="sans-serif" stroke="none">Repository Layer</text>
    </g>
    <g fill="rgb(255,204,0)" text-rendering="geometricPrecision" shape-rendering="geometricPrecision" transform="matrix(1,0,0,1,78,-68)" stroke="rgb(255,204,0)">
      <rect x="225" width="157" height="79" y="839" clip-path="url(#clipPath2)" stroke="none"/>
    </g>
    <g text-rendering="geometricPrecision" stroke-miterlimit="1.45" shape-rendering="geometricPrecision" transform="matrix(1,0,0,1,78,-68)" stroke-linecap="butt">
      <rect fill="none" x="225" width="157" height="79" y="839" clip-path="url(#clipPath2)"/>
      <text x="239.4658" xml:space="preserve" y="883.2139" clip-path="url(#clipPath2)" font-family="sans-serif" stroke="none">DAL Layer using LiteDB</text>
    </g>
    <g fill="rgb(255,204,0)" text-rendering="geometricPrecision" shape-rendering="geometricPrecision" transform="matrix(1,0,0,1,78,-68)" stroke="rgb(255,204,0)">
      <rect x="-62.2" width="157" height="79" y="461" clip-path="url(#clipPath2)" stroke="none"/>
    </g>
    <g text-rendering="geometricPrecision" stroke-miterlimit="1.45" shape-rendering="geometricPrecision" transform="matrix(1,0,0,1,78,-68)" stroke-linecap="butt">
      <rect fill="none" x="-62.2" width="157" height="79" y="461" clip-path="url(#clipPath2)"/>
      <text x="-24.0447" xml:space="preserve" y="497.8633" clip-path="url(#clipPath2)" font-family="sans-serif" stroke="none">ASP.NET Core</text>
      <text x="-33.7332" xml:space="preserve" y="512.5645" clip-path="url(#clipPath2)" font-family="sans-serif" stroke="none">Response Pipeline</text>
    </g>
    <g fill="rgb(255,204,0)" text-rendering="geometricPrecision" shape-rendering="geometricPrecision" transform="matrix(1,0,0,1,78,-68)" stroke="rgb(255,204,0)">
      <rect x="-62.2" width="157" height="79" y="83" clip-path="url(#clipPath2)" stroke="none"/>
    </g>
    <g text-rendering="geometricPrecision" stroke-miterlimit="1.45" shape-rendering="geometricPrecision" transform="matrix(1,0,0,1,78,-68)" stroke-linecap="butt">
      <rect fill="none" x="-62.2" width="157" height="79" y="83" clip-path="url(#clipPath2)"/>
      <text x="-42.0535" xml:space="preserve" y="127.2139" clip-path="url(#clipPath2)" font-family="sans-serif" stroke="none">Browser / Swagger UI</text>
      <path fill="none" d="M303.5 162 L303.5 201" clip-path="url(#clipPath2)"/>
      <path d="M303.5 209 L308.5 197 L303.5 200 L298.5 197 Z" clip-path="url(#clipPath2)" stroke="none"/>
      <path fill="none" d="M303.5 288 L303.5 327" clip-path="url(#clipPath2)"/>
      <path d="M303.5 335 L308.5 323 L303.5 326 L298.5 323 Z" clip-path="url(#clipPath2)" stroke="none"/>
      <path fill="none" d="M303.5 414 L303.5 453" clip-path="url(#clipPath2)"/>
      <path d="M303.5 461 L308.5 449 L303.5 452 L298.5 449 Z" clip-path="url(#clipPath2)" stroke="none"/>
      <text x="215.1377" xml:space="preserve" y="442.2139" clip-path="url(#clipPath2)" font-family="sans-serif" stroke="none">Authorization success</text>
      <path fill="none" d="M303.5 548 L303.5 579" clip-path="url(#clipPath2)"/>
      <path d="M303.5 540 L298.5 552 L303.5 549 L308.5 552 Z" clip-path="url(#clipPath2)" stroke="none"/>
      <path d="M303.5 587 L308.5 575 L303.5 578 L298.5 575 Z" clip-path="url(#clipPath2)" stroke="none"/>
      <text x="203.123" xml:space="preserve" y="568.2139" clip-path="url(#clipPath2)" font-family="sans-serif" stroke="none">Send command to handler</text>
      <path fill="none" d="M303.5 674 L303.5 705" clip-path="url(#clipPath2)"/>
      <path d="M303.5 666 L298.5 678 L303.5 675 L308.5 678 Z" clip-path="url(#clipPath2)" stroke="none"/>
      <path d="M303.5 713 L308.5 701 L303.5 704 L298.5 701 Z" clip-path="url(#clipPath2)" stroke="none"/>
      <text x="198.96" xml:space="preserve" y="694.2139" clip-path="url(#clipPath2)" font-family="sans-serif" stroke="none">Dto &lt;=&gt; Doman Conversion</text>
      <path fill="none" d="M303.5 800 L303.5 831" clip-path="url(#clipPath2)"/>
      <path d="M303.5 792 L298.5 804 L303.5 801 L308.5 804 Z" clip-path="url(#clipPath2)" stroke="none"/>
      <path d="M303.5 839 L308.5 827 L303.5 830 L298.5 827 Z" clip-path="url(#clipPath2)" stroke="none"/>
      <text x="196.625" xml:space="preserve" y="820.2139" clip-path="url(#clipPath2)" font-family="sans-serif" stroke="none">DAL &lt;=&gt; Domain conversion</text>
      <path fill="none" d="M225 500.5 L102.8 500.5" clip-path="url(#clipPath2)"/>
      <path d="M94.8 500.5 L106.8 505.5 L103.8 500.5 L106.8 495.5 Z" clip-path="url(#clipPath2)" stroke="none"/>
      <path fill="none" d="M225 407.5826 L164.5505 433.0582 L102.0819 461.4763" clip-path="url(#clipPath2)"/>
      <path d="M94.8 464.7889 L107.7933 464.3711 L102.9921 461.0622 L103.6524 455.2687 Z" clip-path="url(#clipPath2)" stroke="none"/>
      <text x="114.9819" xml:space="preserve" y="403.7579" clip-path="url(#clipPath2)" font-family="sans-serif" stroke="none">Authorization failure</text>
      <path fill="none" d="M16.3 461 L16.3 170" clip-path="url(#clipPath2)"/>
      <path d="M16.3 162 L11.3 174 L16.3 171 L21.3 174 Z" clip-path="url(#clipPath2)" stroke="none"/>
      <path fill="none" d="M94.8 122.5 L217 122.5" clip-path="url(#clipPath2)"/>
      <path d="M225 122.5 L213 117.5 L216 122.5 L213 127.5 Z" clip-path="url(#clipPath2)" stroke="none"/>
    </g>
  </g>
</svg>
